<mxfile host="app.diagrams.net" agent="Mozilla/5.0 (Windows NT 10.0; Win64; x64) AppleWebKit/537.36 (KHTML, like Gecko) Chrome/131.0.0.0 Safari/537.36" version="25.0.1">
  <diagram name="Page-1" id="VHGgbvcD2NEuSex8hvED">
    <mxGraphModel dx="1114" dy="600" grid="1" gridSize="10" guides="1" tooltips="1" connect="1" arrows="1" fold="1" page="1" pageScale="1" pageWidth="850" pageHeight="1100" math="0" shadow="0">
      <root>
        <mxCell id="0" />
        <mxCell id="1" parent="0" />
        <mxCell id="mXg5Pyju6pFeTIB6QDBm-1" value="&lt;font style=&quot;font-size: 30px;&quot;&gt;SRE&lt;/font&gt;" style="text;html=1;align=center;verticalAlign=middle;whiteSpace=wrap;rounded=0;" parent="1" vertex="1">
          <mxGeometry x="350" y="30" width="160" height="30" as="geometry" />
        </mxCell>
        <mxCell id="mXg5Pyju6pFeTIB6QDBm-2" value="&lt;div style=&quot;text-align: left;&quot;&gt;&lt;b style=&quot;font-size: 20px; background-color: initial;&quot;&gt;Core skills&lt;/b&gt;&lt;/div&gt;&lt;div&gt;&lt;ul style=&quot;border-width: 0px; border-style: solid; box-sizing: border-box; overflow-wrap: break-word; margin: 0px; padding-top: 0px; padding-right: 0px; padding-bottom: 0px; padding-left: var(--chakra-space-4); border-color: var(--chakra-colors-chakra-border-color); outline-color: var(--chakra-colors-blue-500); list-style-position: initial; list-style-image: initial; margin-inline-start: 1em; color: rgb(11, 11, 11); font-family: &amp;quot;Open Sans&amp;quot;, sans-serif; text-align: left; background-color: rgb(255, 255, 255);&quot; class=&quot;css-19qh3zo&quot; role=&quot;list&quot;&gt;&lt;li style=&quot;border-width: 0px; border-style: solid; box-sizing: border-box; overflow-wrap: break-word; border-color: var(--chakra-colors-chakra-border-color); outline-color: var(--chakra-colors-blue-500); list-style-type: inherit;&quot; class=&quot;css-cvpopp&quot;&gt;&lt;font&gt;Monitoring &amp;amp; tooling&lt;/font&gt;&lt;/li&gt;&lt;li style=&quot;border-width: 0px; border-style: solid; box-sizing: border-box; overflow-wrap: break-word; border-color: var(--chakra-colors-chakra-border-color); outline-color: var(--chakra-colors-blue-500); list-style-type: inherit; margin-top: var(--chakra-space-2);&quot; class=&quot;css-cvpopp&quot;&gt;&lt;font&gt;Information gathering&lt;/font&gt;&lt;/li&gt;&lt;li style=&quot;border-width: 0px; border-style: solid; box-sizing: border-box; overflow-wrap: break-word; border-color: var(--chakra-colors-chakra-border-color); outline-color: var(--chakra-colors-blue-500); list-style-type: inherit; margin-top: var(--chakra-space-2);&quot; class=&quot;css-cvpopp&quot;&gt;&lt;font&gt;The &quot;Golden 4&quot; -- latency, saturation, errors, traffic&amp;nbsp;&lt;/font&gt;&lt;/li&gt;&lt;li style=&quot;border-width: 0px; border-style: solid; box-sizing: border-box; overflow-wrap: break-word; border-color: var(--chakra-colors-chakra-border-color); outline-color: var(--chakra-colors-blue-500); list-style-type: inherit; margin-top: var(--chakra-space-2);&quot; class=&quot;css-cvpopp&quot;&gt;&lt;font&gt;Implementing system updates&lt;/font&gt;&lt;/li&gt;&lt;li style=&quot;border-width: 0px; border-style: solid; box-sizing: border-box; overflow-wrap: break-word; border-color: var(--chakra-colors-chakra-border-color); outline-color: var(--chakra-colors-blue-500); list-style-type: inherit; margin-top: var(--chakra-space-2);&quot; class=&quot;css-cvpopp&quot;&gt;&lt;font&gt;Release coordination&lt;/font&gt;&lt;/li&gt;&lt;li style=&quot;border-width: 0px; border-style: solid; box-sizing: border-box; overflow-wrap: break-word; border-color: var(--chakra-colors-chakra-border-color); outline-color: var(--chakra-colors-blue-500); list-style-type: inherit; margin-top: var(--chakra-space-2);&quot; class=&quot;css-cvpopp&quot;&gt;&lt;font&gt;Creating an infrastructure to ensure the reliability of services&lt;/font&gt;&lt;/li&gt;&lt;/ul&gt;&lt;/div&gt;" style="text;html=1;align=center;verticalAlign=middle;whiteSpace=wrap;rounded=0;" parent="1" vertex="1">
          <mxGeometry x="40" y="150" width="420" height="180" as="geometry" />
        </mxCell>
        <mxCell id="mXg5Pyju6pFeTIB6QDBm-3" value="&lt;h1 style=&quot;margin-top: 0px;&quot;&gt;&lt;font style=&quot;font-size: 18px;&quot;&gt;Development vs Opereration&lt;/font&gt;&lt;/h1&gt;&lt;p&gt;- Goals for development: Releases&lt;/p&gt;&lt;p&gt;- Goals for operation: Stability&lt;/p&gt;" style="text;html=1;whiteSpace=wrap;overflow=hidden;rounded=0;" parent="1" vertex="1">
          <mxGeometry x="490" y="180" width="270" height="120" as="geometry" />
        </mxCell>
        <mxCell id="mXg5Pyju6pFeTIB6QDBm-4" value="&lt;h1 style=&quot;margin-top: 0px;&quot;&gt;&lt;span style=&quot;color: rgb(11, 11, 11); font-family: &amp;quot;Open Sans&amp;quot;, sans-serif; background-color: rgb(255, 255, 255);&quot;&gt;&lt;font style=&quot;font-size: 18px;&quot;&gt;SRE&#39;s Responsible&amp;nbsp;&lt;/font&gt;&lt;/span&gt;&lt;/h1&gt;&lt;ul style=&quot;border-width: 0px; border-style: solid; box-sizing: border-box; overflow-wrap: break-word; margin-top: 0px; margin-right: 0px; margin-left: 0px; padding-top: 0px; padding-right: 0px; padding-bottom: 0px; padding-left: var(--chakra-space-4); border-color: var(--chakra-colors-chakra-border-color); outline-color: var(--chakra-colors-blue-500); list-style-position: initial; list-style-image: initial; margin-inline-start: 1em; margin-bottom: var(--chakra-space-4); color: rgb(11, 11, 11); font-family: &amp;quot;Open Sans&amp;quot;, sans-serif; background-color: rgb(255, 255, 255);&quot; class=&quot;css-19qh3zo&quot; role=&quot;list&quot;&gt;&lt;li style=&quot;border-width: 0px; border-style: solid; box-sizing: border-box; overflow-wrap: break-word; border-color: var(--chakra-colors-chakra-border-color); outline-color: var(--chakra-colors-blue-500); list-style-type: inherit;&quot; class=&quot;css-cvpopp&quot;&gt;&lt;font&gt;Incident Response -- responding to incidents in production environments&lt;/font&gt;&lt;/li&gt;&lt;li style=&quot;border-width: 0px; border-style: solid; box-sizing: border-box; overflow-wrap: break-word; border-color: var(--chakra-colors-chakra-border-color); outline-color: var(--chakra-colors-blue-500); list-style-type: inherit; margin-top: var(--chakra-space-2);&quot; class=&quot;css-cvpopp&quot;&gt;&lt;font&gt;Post-mortems -- root cause analysis, preventing the issue in the future&lt;/font&gt;&lt;/li&gt;&lt;li style=&quot;border-width: 0px; border-style: solid; box-sizing: border-box; overflow-wrap: break-word; border-color: var(--chakra-colors-chakra-border-color); outline-color: var(--chakra-colors-blue-500); list-style-type: inherit; margin-top: var(--chakra-space-2);&quot; class=&quot;css-cvpopp&quot;&gt;&lt;font&gt;Monitoring &amp;amp; Alerting -- creating and using dashboards and alerting mechanisms&lt;/font&gt;&lt;/li&gt;&lt;li style=&quot;border-width: 0px; border-style: solid; box-sizing: border-box; overflow-wrap: break-word; border-color: var(--chakra-colors-chakra-border-color); outline-color: var(--chakra-colors-blue-500); list-style-type: inherit; margin-top: var(--chakra-space-2);&quot; class=&quot;css-cvpopp&quot;&gt;&lt;font&gt;Capacity Planning -- planning new infrastructure to accommodate application demands&lt;/font&gt;&lt;/li&gt;&lt;/ul&gt;" style="text;html=1;whiteSpace=wrap;overflow=hidden;rounded=0;" parent="1" vertex="1">
          <mxGeometry x="80" y="340" width="360" height="180" as="geometry" />
        </mxCell>
        <mxCell id="mXg5Pyju6pFeTIB6QDBm-7" value="" style="group" parent="1" vertex="1" connectable="0">
          <mxGeometry x="480" y="330" width="265.63" height="220" as="geometry" />
        </mxCell>
        <mxCell id="mXg5Pyju6pFeTIB6QDBm-5" value="" style="shape=image;verticalLabelPosition=bottom;labelBackgroundColor=default;verticalAlign=top;aspect=fixed;imageAspect=0;image=https://video.udacity-data.com/topher/2021/October/6177024c_l3-roles-responsibilities/l3-roles-responsibilities.jpg;" parent="mXg5Pyju6pFeTIB6QDBm-7" vertex="1">
          <mxGeometry width="265.63" height="220" as="geometry" />
        </mxCell>
        <mxCell id="mXg5Pyju6pFeTIB6QDBm-6" value="&lt;b&gt;&lt;font&gt;Challenges&lt;/font&gt;&lt;/b&gt;" style="text;html=1;align=center;verticalAlign=middle;whiteSpace=wrap;rounded=0;" parent="mXg5Pyju6pFeTIB6QDBm-7" vertex="1">
          <mxGeometry x="105" y="95" width="65" height="25" as="geometry" />
        </mxCell>
        <mxCell id="mXg5Pyju6pFeTIB6QDBm-8" value="" style="shape=image;verticalLabelPosition=bottom;labelBackgroundColor=default;verticalAlign=top;aspect=fixed;imageAspect=0;image=https://video.udacity-data.com/topher/2021/October/61609674_sre-scope-of-work/sre-scope-of-work.jpg;" parent="1" vertex="1">
          <mxGeometry x="48.5" y="570" width="403" height="195.94" as="geometry" />
        </mxCell>
        <mxCell id="mXg5Pyju6pFeTIB6QDBm-9" value="&lt;h1 style=&quot;margin-top: 0px;&quot;&gt;&lt;span style=&quot;color: rgb(11, 11, 11); font-family: &amp;quot;Open Sans&amp;quot;, sans-serif; background-color: rgb(255, 255, 255);&quot;&gt;&lt;font style=&quot;font-size: 18px;&quot;&gt;&amp;nbsp;SRE practices&amp;nbsp;&lt;/font&gt;&lt;/span&gt;&lt;/h1&gt;&lt;h3 style=&quot;border-width: 0px; border-style: solid; box-sizing: border-box; overflow-wrap: break-word; margin-top: var(--chakra-space-8); margin-right: 0px; margin-bottom: var(--chakra-space-2); margin-left: 0px; border-color: var(--chakra-colors-chakra-border-color); outline-color: var(--chakra-colors-blue-500); font-family: var(--chakra-fonts-heading); line-height: var(--chakra-lineHeights-tallest); color: rgb(11, 11, 11); background-color: rgb(255, 255, 255);&quot; class=&quot;chakra-heading css-k57syw&quot;&gt;&lt;font style=&quot;font-size: 12px;&quot;&gt;On-call &amp;amp; incident response strategies:&lt;/font&gt;&lt;/h3&gt;&lt;ul style=&quot;border-width: 0px; border-style: solid; box-sizing: border-box; overflow-wrap: break-word; margin: 0px; padding-top: 0px; padding-right: 0px; padding-bottom: 0px; padding-left: var(--chakra-space-4); border-color: var(--chakra-colors-chakra-border-color); outline-color: var(--chakra-colors-blue-500); list-style-position: initial; list-style-image: initial; margin-inline-start: 1em; color: rgb(11, 11, 11); font-family: &amp;quot;Open Sans&amp;quot;, sans-serif; background-color: rgb(255, 255, 255);&quot; class=&quot;css-19qh3zo&quot; role=&quot;list&quot;&gt;&lt;li style=&quot;border-width: 0px; border-style: solid; box-sizing: border-box; overflow-wrap: break-word; border-color: var(--chakra-colors-chakra-border-color); outline-color: var(--chakra-colors-blue-500); list-style-type: inherit;&quot; class=&quot;css-cvpopp&quot;&gt;&lt;font style=&quot;font-size: 10px;&quot;&gt;Primary/secondary contacts are on-call one week a month. With a secondary contact, if you happen to be away from the phone, the call will divert to that person.&lt;/font&gt;&lt;/li&gt;&lt;li style=&quot;border-width: 0px; border-style: solid; box-sizing: border-box; overflow-wrap: break-word; border-color: var(--chakra-colors-chakra-border-color); outline-color: var(--chakra-colors-blue-500); list-style-type: inherit; margin-top: var(--chakra-space-2);&quot; class=&quot;css-cvpopp&quot;&gt;&lt;font style=&quot;font-size: 10px;&quot;&gt;The on-call contact only handles essential events.&lt;/font&gt;&lt;/li&gt;&lt;li style=&quot;border-width: 0px; border-style: solid; box-sizing: border-box; overflow-wrap: break-word; border-color: var(--chakra-colors-chakra-border-color); outline-color: var(--chakra-colors-blue-500); list-style-type: inherit; margin-top: var(--chakra-space-2);&quot; class=&quot;css-cvpopp&quot;&gt;&lt;font style=&quot;font-size: 10px;&quot;&gt;Instituting a &quot;follow the sun&quot; model to eliminate night shifts.&lt;/font&gt;&lt;/li&gt;&lt;li style=&quot;border-width: 0px; border-style: solid; box-sizing: border-box; overflow-wrap: break-word; border-color: var(--chakra-colors-chakra-border-color); outline-color: var(--chakra-colors-blue-500); list-style-type: inherit; margin-top: var(--chakra-space-2);&quot; class=&quot;css-cvpopp&quot;&gt;&lt;font style=&quot;font-size: 10px;&quot;&gt;Limit the number of incident responses to two per shift.&lt;/font&gt;&lt;/li&gt;&lt;li style=&quot;border-width: 0px; border-style: solid; box-sizing: border-box; overflow-wrap: break-word; border-color: var(--chakra-colors-chakra-border-color); outline-color: var(--chakra-colors-blue-500); list-style-type: inherit; margin-top: var(--chakra-space-2);&quot; class=&quot;css-cvpopp&quot;&gt;&lt;font style=&quot;font-size: 10px;&quot;&gt;Have playbooks (see the&amp;nbsp;&lt;strong style=&quot;border-width: 0px; border-style: solid; box-sizing: border-box; overflow-wrap: break-word; border-color: var(--chakra-colors-chakra-border-color); outline-color: var(--chakra-colors-blue-500);&quot;&gt;example&lt;/strong&gt;&amp;nbsp;below) that are comprised of escalation paths and incident-management procedures.&lt;/font&gt;&lt;/li&gt;&lt;/ul&gt;&lt;div&gt;&lt;font style=&quot;font-size: 10px;&quot; face=&quot;Open Sans, sans-serif&quot; color=&quot;#0b0b0b&quot;&gt;&lt;br&gt;&lt;/font&gt;&lt;/div&gt;&lt;div&gt;&lt;h3 style=&quot;border-width: 0px; border-style: solid; box-sizing: border-box; overflow-wrap: break-word; margin-top: var(--chakra-space-8); margin-right: 0px; margin-bottom: var(--chakra-space-2); margin-left: 0px; border-color: var(--chakra-colors-chakra-border-color); outline-color: var(--chakra-colors-blue-500); font-family: var(--chakra-fonts-heading); line-height: var(--chakra-lineHeights-tallest); color: rgb(11, 11, 11); background-color: rgb(255, 255, 255);&quot; class=&quot;chakra-heading css-k57syw&quot;&gt;&lt;font style=&quot;font-size: 12px;&quot;&gt;Post-mortems:&lt;/font&gt;&lt;/h3&gt;&lt;p style=&quot;border-width: 0px; border-style: solid; box-sizing: border-box; overflow-wrap: break-word; margin-top: 0px; margin-right: 0px; margin-bottom: var(--chakra-space-4); margin-left: 0px; border-color: var(--chakra-colors-chakra-border-color); outline-color: var(--chakra-colors-blue-500); line-height: var(--chakra-lineHeights-base); color: rgb(11, 11, 11); font-family: &amp;quot;Open Sans&amp;quot;, sans-serif; background-color: rgb(255, 255, 255);&quot; class=&quot;chakra-text css-o3oz8b&quot;&gt;&lt;font style=&quot;font-size: 10px;&quot;&gt;Events that occur which lead to the creation of post-mortems:&lt;/font&gt;&lt;/p&gt;&lt;ul style=&quot;border-width: 0px; border-style: solid; box-sizing: border-box; overflow-wrap: break-word; margin-top: 0px; margin-right: 0px; margin-left: 0px; padding-top: 0px; padding-right: 0px; padding-bottom: 0px; padding-left: var(--chakra-space-4); border-color: var(--chakra-colors-chakra-border-color); outline-color: var(--chakra-colors-blue-500); list-style-position: initial; list-style-image: initial; margin-inline-start: 1em; margin-bottom: var(--chakra-space-4); color: rgb(11, 11, 11); font-family: &amp;quot;Open Sans&amp;quot;, sans-serif; background-color: rgb(255, 255, 255);&quot; class=&quot;css-19qh3zo&quot; role=&quot;list&quot;&gt;&lt;li style=&quot;border-width: 0px; border-style: solid; box-sizing: border-box; overflow-wrap: break-word; border-color: var(--chakra-colors-chakra-border-color); outline-color: var(--chakra-colors-blue-500); list-style-type: inherit;&quot; class=&quot;css-cvpopp&quot;&gt;&lt;font style=&quot;font-size: 10px;&quot;&gt;Data-loss&lt;/font&gt;&lt;/li&gt;&lt;li style=&quot;border-width: 0px; border-style: solid; box-sizing: border-box; overflow-wrap: break-word; border-color: var(--chakra-colors-chakra-border-color); outline-color: var(--chakra-colors-blue-500); list-style-type: inherit; margin-top: var(--chakra-space-2);&quot; class=&quot;css-cvpopp&quot;&gt;&lt;font style=&quot;font-size: 10px;&quot;&gt;On-call engineer intervention, which comes from an alert or a phone call&lt;/font&gt;&lt;/li&gt;&lt;li style=&quot;border-width: 0px; border-style: solid; box-sizing: border-box; overflow-wrap: break-word; border-color: var(--chakra-colors-chakra-border-color); outline-color: var(--chakra-colors-blue-500); list-style-type: inherit; margin-top: var(--chakra-space-2);&quot; class=&quot;css-cvpopp&quot;&gt;&lt;font style=&quot;font-size: 10px;&quot;&gt;Failures with monitoring or visible downtime&lt;/font&gt;&lt;/li&gt;&lt;/ul&gt;&lt;p style=&quot;border-width: 0px; border-style: solid; box-sizing: border-box; overflow-wrap: break-word; margin-top: 0px; margin-right: 0px; margin-bottom: var(--chakra-space-4); margin-left: 0px; border-color: var(--chakra-colors-chakra-border-color); outline-color: var(--chakra-colors-blue-500); line-height: var(--chakra-lineHeights-base); color: rgb(11, 11, 11); font-family: &amp;quot;Open Sans&amp;quot;, sans-serif; background-color: rgb(255, 255, 255);&quot; class=&quot;chakra-text css-o3oz8b&quot;&gt;&lt;font style=&quot;font-size: 10px;&quot;&gt;Items to include in a post-mortem:&lt;/font&gt;&lt;/p&gt;&lt;ul style=&quot;border-width: 0px; border-style: solid; box-sizing: border-box; overflow-wrap: break-word; margin-top: 0px; margin-right: 0px; margin-left: 0px; padding-top: 0px; padding-right: 0px; padding-bottom: 0px; padding-left: var(--chakra-space-4); border-color: var(--chakra-colors-chakra-border-color); outline-color: var(--chakra-colors-blue-500); list-style-position: initial; list-style-image: initial; margin-inline-start: 1em; margin-bottom: var(--chakra-space-4); color: rgb(11, 11, 11); font-family: &amp;quot;Open Sans&amp;quot;, sans-serif; background-color: rgb(255, 255, 255);&quot; class=&quot;css-19qh3zo&quot; role=&quot;list&quot;&gt;&lt;li style=&quot;border-width: 0px; border-style: solid; box-sizing: border-box; overflow-wrap: break-word; border-color: var(--chakra-colors-chakra-border-color); outline-color: var(--chakra-colors-blue-500); list-style-type: inherit;&quot; class=&quot;css-cvpopp&quot;&gt;&lt;font style=&quot;font-size: 10px;&quot;&gt;A record of an incident and its impact&lt;/font&gt;&lt;/li&gt;&lt;li style=&quot;border-width: 0px; border-style: solid; box-sizing: border-box; overflow-wrap: break-word; border-color: var(--chakra-colors-chakra-border-color); outline-color: var(--chakra-colors-blue-500); list-style-type: inherit; margin-top: var(--chakra-space-2);&quot; class=&quot;css-cvpopp&quot;&gt;&lt;font style=&quot;font-size: 10px;&quot;&gt;Actions taken to mitigate the incident&lt;/font&gt;&lt;/li&gt;&lt;li style=&quot;border-width: 0px; border-style: solid; box-sizing: border-box; overflow-wrap: break-word; border-color: var(--chakra-colors-chakra-border-color); outline-color: var(--chakra-colors-blue-500); list-style-type: inherit; margin-top: var(--chakra-space-2);&quot; class=&quot;css-cvpopp&quot;&gt;&lt;font style=&quot;font-size: 10px;&quot;&gt;The incident root cause&lt;/font&gt;&lt;/li&gt;&lt;li style=&quot;border-width: 0px; border-style: solid; box-sizing: border-box; overflow-wrap: break-word; border-color: var(--chakra-colors-chakra-border-color); outline-color: var(--chakra-colors-blue-500); list-style-type: inherit; margin-top: var(--chakra-space-2);&quot; class=&quot;css-cvpopp&quot;&gt;&lt;font style=&quot;font-size: 10px;&quot;&gt;Any prevention measures&lt;/font&gt;&lt;/li&gt;&lt;li style=&quot;border-width: 0px; border-style: solid; box-sizing: border-box; overflow-wrap: break-word; border-color: var(--chakra-colors-chakra-border-color); outline-color: var(--chakra-colors-blue-500); list-style-type: inherit; margin-top: var(--chakra-space-2);&quot; class=&quot;css-cvpopp&quot;&gt;&lt;font style=&quot;font-size: 10px;&quot;&gt;Identification of the causes of system failure, not pointing fingers&lt;/font&gt;&lt;/li&gt;&lt;/ul&gt;&lt;p style=&quot;border-width: 0px; border-style: solid; box-sizing: border-box; overflow-wrap: break-word; margin-top: 0px; margin-right: 0px; margin-bottom: var(--chakra-space-4); margin-left: 0px; border-color: var(--chakra-colors-chakra-border-color); outline-color: var(--chakra-colors-blue-500); line-height: var(--chakra-lineHeights-base); color: rgb(11, 11, 11); font-family: &amp;quot;Open Sans&amp;quot;, sans-serif; background-color: rgb(255, 255, 255);&quot; class=&quot;chakra-text css-o3oz8b&quot;&gt;&lt;font style=&quot;font-size: 10px;&quot;&gt;Instituting a blameless post-mortem culture:&lt;/font&gt;&lt;/p&gt;&lt;ul style=&quot;border-width: 0px; border-style: solid; box-sizing: border-box; overflow-wrap: break-word; margin-top: 0px; margin-right: 0px; margin-left: 0px; padding-top: 0px; padding-right: 0px; padding-bottom: 0px; padding-left: var(--chakra-space-4); border-color: var(--chakra-colors-chakra-border-color); outline-color: var(--chakra-colors-blue-500); list-style-position: initial; list-style-image: initial; margin-inline-start: 1em; margin-bottom: var(--chakra-space-4); color: rgb(11, 11, 11); font-family: &amp;quot;Open Sans&amp;quot;, sans-serif; background-color: rgb(255, 255, 255);&quot; class=&quot;css-19qh3zo&quot; role=&quot;list&quot;&gt;&lt;li style=&quot;border-width: 0px; border-style: solid; box-sizing: border-box; overflow-wrap: break-word; border-color: var(--chakra-colors-chakra-border-color); outline-color: var(--chakra-colors-blue-500); list-style-type: inherit;&quot; class=&quot;css-cvpopp&quot;&gt;&lt;font style=&quot;font-size: 10px;&quot;&gt;The problem and system failure&lt;/font&gt;&lt;/li&gt;&lt;li style=&quot;border-width: 0px; border-style: solid; box-sizing: border-box; overflow-wrap: break-word; border-color: var(--chakra-colors-chakra-border-color); outline-color: var(--chakra-colors-blue-500); list-style-type: inherit; margin-top: var(--chakra-space-2);&quot; class=&quot;css-cvpopp&quot;&gt;&lt;font style=&quot;font-size: 10px;&quot;&gt;Involving everyone on the team&lt;/font&gt;&lt;/li&gt;&lt;li style=&quot;border-width: 0px; border-style: solid; box-sizing: border-box; overflow-wrap: break-word; border-color: var(--chakra-colors-chakra-border-color); outline-color: var(--chakra-colors-blue-500); list-style-type: inherit; margin-top: var(--chakra-space-2);&quot; class=&quot;css-cvpopp&quot;&gt;&lt;font style=&quot;font-size: 10px;&quot;&gt;Collecting thoughts and solutions from smart people&lt;/font&gt;&lt;/li&gt;&lt;li style=&quot;border-width: 0px; border-style: solid; box-sizing: border-box; overflow-wrap: break-word; border-color: var(--chakra-colors-chakra-border-color); outline-color: var(--chakra-colors-blue-500); list-style-type: inherit; margin-top: var(--chakra-space-2);&quot; class=&quot;css-cvpopp&quot;&gt;&lt;font style=&quot;font-size: 10px;&quot;&gt;Finding a permanent solution&lt;/font&gt;&lt;/li&gt;&lt;/ul&gt;&lt;/div&gt;&lt;p&gt;&lt;font style=&quot;font-size: 10px;&quot;&gt;.&lt;/font&gt;&lt;/p&gt;&lt;h3 style=&quot;border-width: 0px; border-style: solid; box-sizing: border-box; overflow-wrap: break-word; margin-top: var(--chakra-space-8); margin-right: 0px; margin-bottom: var(--chakra-space-2); margin-left: 0px; border-color: var(--chakra-colors-chakra-border-color); outline-color: var(--chakra-colors-blue-500); font-family: var(--chakra-fonts-heading); line-height: var(--chakra-lineHeights-tallest); color: rgb(11, 11, 11); background-color: rgb(255, 255, 255);&quot; class=&quot;chakra-heading css-k57syw&quot;&gt;&lt;font style=&quot;font-size: 12px;&quot;&gt;Reliable product releases include:&lt;/font&gt;&lt;/h3&gt;&lt;ul style=&quot;border-width: 0px; border-style: solid; box-sizing: border-box; overflow-wrap: break-word; margin: 0px; padding-top: 0px; padding-right: 0px; padding-bottom: 0px; padding-left: var(--chakra-space-4); border-color: var(--chakra-colors-chakra-border-color); outline-color: var(--chakra-colors-blue-500); list-style-position: initial; list-style-image: initial; margin-inline-start: 1em; color: rgb(11, 11, 11); font-family: &amp;quot;Open Sans&amp;quot;, sans-serif; background-color: rgb(255, 255, 255);&quot; class=&quot;css-19qh3zo&quot; role=&quot;list&quot;&gt;&lt;li style=&quot;border-width: 0px; border-style: solid; box-sizing: border-box; overflow-wrap: break-word; border-color: var(--chakra-colors-chakra-border-color); outline-color: var(--chakra-colors-blue-500); list-style-type: inherit;&quot; class=&quot;css-cvpopp&quot;&gt;&lt;font style=&quot;font-size: 9px;&quot;&gt;Architecture and dependencies&lt;/font&gt;&lt;ul style=&quot;border-width: 0px; border-style: solid; box-sizing: border-box; overflow-wrap: break-word; margin: 0px; padding-top: 0px; padding-right: 0px; padding-bottom: 0px; padding-left: var(--chakra-space-4); border-color: var(--chakra-colors-chakra-border-color); outline-color: var(--chakra-colors-blue-500); list-style: disc; margin-inline-start: 1em;&quot; class=&quot;css-19qh3zo&quot; role=&quot;list&quot;&gt;&lt;li style=&quot;border-width: 0px; border-style: solid; box-sizing: border-box; overflow-wrap: break-word; border-color: var(--chakra-colors-chakra-border-color); outline-color: var(--chakra-colors-blue-500); list-style-type: inherit;&quot; class=&quot;css-cvpopp&quot;&gt;&lt;font style=&quot;font-size: 9px;&quot;&gt;Latency requirements&lt;/font&gt;&lt;/li&gt;&lt;li style=&quot;border-width: 0px; border-style: solid; box-sizing: border-box; overflow-wrap: break-word; border-color: var(--chakra-colors-chakra-border-color); outline-color: var(--chakra-colors-blue-500); list-style-type: inherit; margin-top: var(--chakra-space-2);&quot; class=&quot;css-cvpopp&quot;&gt;&lt;font style=&quot;font-size: 9px;&quot;&gt;Request flow from front-end to back-end&lt;/font&gt;&lt;/li&gt;&lt;li style=&quot;border-width: 0px; border-style: solid; box-sizing: border-box; overflow-wrap: break-word; border-color: var(--chakra-colors-chakra-border-color); outline-color: var(--chakra-colors-blue-500); list-style-type: inherit; margin-top: var(--chakra-space-2);&quot; class=&quot;css-cvpopp&quot;&gt;&lt;font style=&quot;font-size: 9px;&quot;&gt;The volume of requests&lt;/font&gt;&lt;/li&gt;&lt;/ul&gt;&lt;/li&gt;&lt;li style=&quot;border-width: 0px; border-style: solid; box-sizing: border-box; overflow-wrap: break-word; border-color: var(--chakra-colors-chakra-border-color); outline-color: var(--chakra-colors-blue-500); list-style-type: inherit; margin-top: var(--chakra-space-2);&quot; class=&quot;css-cvpopp&quot;&gt;&lt;font style=&quot;font-size: 9px;&quot;&gt;Integration consists of:&lt;/font&gt;&lt;ul style=&quot;border-width: 0px; border-style: solid; box-sizing: border-box; overflow-wrap: break-word; margin: 0px; padding-top: 0px; padding-right: 0px; padding-bottom: 0px; padding-left: var(--chakra-space-4); border-color: var(--chakra-colors-chakra-border-color); outline-color: var(--chakra-colors-blue-500); list-style: disc; margin-inline-start: 1em;&quot; class=&quot;css-19qh3zo&quot; role=&quot;list&quot;&gt;&lt;li style=&quot;border-width: 0px; border-style: solid; box-sizing: border-box; overflow-wrap: break-word; border-color: var(--chakra-colors-chakra-border-color); outline-color: var(--chakra-colors-blue-500); list-style-type: inherit;&quot; class=&quot;css-cvpopp&quot;&gt;&lt;font style=&quot;font-size: 9px;&quot;&gt;DNS&lt;/font&gt;&lt;/li&gt;&lt;li style=&quot;border-width: 0px; border-style: solid; box-sizing: border-box; overflow-wrap: break-word; border-color: var(--chakra-colors-chakra-border-color); outline-color: var(--chakra-colors-blue-500); list-style-type: inherit; margin-top: var(--chakra-space-2);&quot; class=&quot;css-cvpopp&quot;&gt;&lt;font style=&quot;font-size: 9px;&quot;&gt;Load balancing&lt;/font&gt;&lt;/li&gt;&lt;li style=&quot;border-width: 0px; border-style: solid; box-sizing: border-box; overflow-wrap: break-word; border-color: var(--chakra-colors-chakra-border-color); outline-color: var(--chakra-colors-blue-500); list-style-type: inherit; margin-top: var(--chakra-space-2);&quot; class=&quot;css-cvpopp&quot;&gt;&lt;font style=&quot;font-size: 9px;&quot;&gt;Monitoring&lt;/font&gt;&lt;/li&gt;&lt;/ul&gt;&lt;/li&gt;&lt;li style=&quot;border-width: 0px; border-style: solid; box-sizing: border-box; overflow-wrap: break-word; border-color: var(--chakra-colors-chakra-border-color); outline-color: var(--chakra-colors-blue-500); list-style-type: inherit; margin-top: var(--chakra-space-2);&quot; class=&quot;css-cvpopp&quot;&gt;&lt;font style=&quot;font-size: 9px;&quot;&gt;Failure Modes** **are:&lt;/font&gt;&lt;ul style=&quot;border-width: 0px; border-style: solid; box-sizing: border-box; overflow-wrap: break-word; margin: 0px; padding-top: 0px; padding-right: 0px; padding-bottom: 0px; padding-left: var(--chakra-space-4); border-color: var(--chakra-colors-chakra-border-color); outline-color: var(--chakra-colors-blue-500); list-style: disc; margin-inline-start: 1em;&quot; class=&quot;css-19qh3zo&quot; role=&quot;list&quot;&gt;&lt;li style=&quot;border-width: 0px; border-style: solid; box-sizing: border-box; overflow-wrap: break-word; border-color: var(--chakra-colors-chakra-border-color); outline-color: var(--chakra-colors-blue-500); list-style-type: inherit;&quot; class=&quot;css-cvpopp&quot;&gt;&lt;font style=&quot;font-size: 9px;&quot;&gt;Single-points of failure&lt;/font&gt;&lt;/li&gt;&lt;li style=&quot;border-width: 0px; border-style: solid; box-sizing: border-box; overflow-wrap: break-word; border-color: var(--chakra-colors-chakra-border-color); outline-color: var(--chakra-colors-blue-500); list-style-type: inherit; margin-top: var(--chakra-space-2);&quot; class=&quot;css-cvpopp&quot;&gt;&lt;font style=&quot;font-size: 9px;&quot;&gt;Mitigation tactics of failure within the system&lt;/font&gt;&lt;/li&gt;&lt;/ul&gt;&lt;/li&gt;&lt;li style=&quot;border-width: 0px; border-style: solid; box-sizing: border-box; overflow-wrap: break-word; border-color: var(--chakra-colors-chakra-border-color); outline-color: var(--chakra-colors-blue-500); list-style-type: inherit; margin-top: var(--chakra-space-2);&quot; class=&quot;css-cvpopp&quot;&gt;&lt;font style=&quot;font-size: 9px;&quot;&gt;Process and Automation highlights:&lt;/font&gt;&lt;ul style=&quot;border-width: 0px; border-style: solid; box-sizing: border-box; overflow-wrap: break-word; margin: 0px; padding-top: 0px; padding-right: 0px; padding-bottom: 0px; padding-left: var(--chakra-space-4); border-color: var(--chakra-colors-chakra-border-color); outline-color: var(--chakra-colors-blue-500); list-style: disc; margin-inline-start: 1em;&quot; class=&quot;css-19qh3zo&quot; role=&quot;list&quot;&gt;&lt;li style=&quot;border-width: 0px; border-style: solid; box-sizing: border-box; overflow-wrap: break-word; border-color: var(--chakra-colors-chakra-border-color); outline-color: var(--chakra-colors-blue-500); list-style-type: inherit;&quot; class=&quot;css-cvpopp&quot;&gt;&lt;font style=&quot;font-size: 9px;&quot;&gt;Any manual process&lt;/font&gt;&lt;/li&gt;&lt;li style=&quot;border-width: 0px; border-style: solid; box-sizing: border-box; overflow-wrap: break-word; border-color: var(--chakra-colors-chakra-border-color); outline-color: var(--chakra-colors-blue-500); list-style-type: inherit; margin-top: var(--chakra-space-2);&quot; class=&quot;css-cvpopp&quot;&gt;&lt;font style=&quot;font-size: 9px;&quot;&gt;Documentation&lt;/font&gt;&lt;/li&gt;&lt;/ul&gt;&lt;/li&gt;&lt;li style=&quot;border-width: 0px; border-style: solid; box-sizing: border-box; overflow-wrap: break-word; border-color: var(--chakra-colors-chakra-border-color); outline-color: var(--chakra-colors-blue-500); list-style-type: inherit; margin-top: var(--chakra-space-2);&quot; class=&quot;css-cvpopp&quot;&gt;&lt;font style=&quot;font-size: 9px;&quot;&gt;Rollout Planning involves:&lt;/font&gt;&lt;ul style=&quot;border-width: 0px; border-style: solid; box-sizing: border-box; overflow-wrap: break-word; margin: 0px; padding-top: 0px; padding-right: 0px; padding-bottom: 0px; padding-left: var(--chakra-space-4); border-color: var(--chakra-colors-chakra-border-color); outline-color: var(--chakra-colors-blue-500); list-style: disc; margin-inline-start: 1em;&quot; class=&quot;css-19qh3zo&quot; role=&quot;list&quot;&gt;&lt;li style=&quot;border-width: 0px; border-style: solid; box-sizing: border-box; overflow-wrap: break-word; border-color: var(--chakra-colors-chakra-border-color); outline-color: var(--chakra-colors-blue-500); list-style-type: inherit;&quot; class=&quot;css-cvpopp&quot;&gt;&lt;font style=&quot;font-size: 9px;&quot;&gt;How the change goes live&lt;/font&gt;&lt;/li&gt;&lt;li style=&quot;border-width: 0px; border-style: solid; box-sizing: border-box; overflow-wrap: break-word; border-color: var(--chakra-colors-chakra-border-color); outline-color: var(--chakra-colors-blue-500); list-style-type: inherit; margin-top: var(--chakra-space-2);&quot; class=&quot;css-cvpopp&quot;&gt;&lt;font style=&quot;font-size: 9px;&quot;&gt;Canary deployments&lt;/font&gt;&lt;/li&gt;&lt;/ul&gt;&lt;/li&gt;&lt;/ul&gt;" style="text;html=1;whiteSpace=wrap;overflow=hidden;rounded=0;" parent="1" vertex="1">
          <mxGeometry x="45" y="820" width="770" height="720" as="geometry" />
        </mxCell>
      </root>
    </mxGraphModel>
  </diagram>
</mxfile>
